<?xml version="1.0" encoding="utf-8"?>
<!-- Generator: Adobe Illustrator 16.0.0, SVG Export Plug-In . SVG Version: 6.00 Build 0)  -->
<!DOCTYPE svg PUBLIC "-//W3C//DTD SVG 1.1//EN" "http://www.w3.org/Graphics/SVG/1.1/DTD/svg11.dtd">
<svg version="1.1" id="Layer_1" xmlns="http://www.w3.org/2000/svg" xmlns:xlink="http://www.w3.org/1999/xlink" x="0px" y="0px"
	 width="25.233px" height="25.238px" viewBox="0 0 25.233 25.238" enable-background="new 0 0 25.233 25.238" xml:space="preserve">
<g>
	<path fill-rule="evenodd" clip-rule="evenodd" fill="#FFFFFF" d="M23.153,12.621c0-2.943-1.17-5.553-3.08-7.455
		c-1.912-1.918-4.52-3.089-7.46-3.089c-2.888,0-5.538,1.171-7.45,3.089c-1.91,1.902-3.058,4.512-3.058,7.455
		c0,2.892,1.147,5.546,3.058,7.445c1.912,1.922,4.563,3.036,7.45,3.036c2.941,0,5.548-1.114,7.46-3.036
		C21.983,18.167,23.153,15.513,23.153,12.621L23.153,12.621z M7.813,10.64L7.813,10.64c0-0.17,0-0.292,0.064-0.44
		c0.033-0.092,0.1-0.215,0.217-0.332C8.267,9.678,8.555,9.58,8.792,9.58c0.31,0,0.567,0.098,0.762,0.287l3.25,3.273l3.232-3.273
		c0.211-0.189,0.471-0.287,0.732-0.287c0.268,0,0.553,0.098,0.719,0.287c0.221,0.24,0.287,0.48,0.287,0.772
		c0,0.228-0.066,0.499-0.287,0.71l-3.961,3.938c-0.195,0.225-0.462,0.365-0.722,0.365c-0.279,0-0.546-0.141-0.738-0.365L8.095,11.35
		c-0.117-0.074-0.184-0.211-0.217-0.352C7.813,10.867,7.813,10.731,7.813,10.64L7.813,10.64z M0,12.621L0,12.621
		c0-3.492,1.406-6.65,3.703-8.91C5.997,1.408,9.146,0,12.612,0c3.488,0,6.642,1.408,8.916,3.711c2.291,2.26,3.705,5.418,3.705,8.91
		c0,3.461-1.414,6.616-3.705,8.908c-2.273,2.292-5.428,3.709-8.916,3.709c-3.467,0-6.615-1.417-8.909-3.709
		C1.406,19.237,0,16.082,0,12.621L0,12.621z"/>
</g>
</svg>
