<?xml version="1.0" encoding="utf-8"?>
<!-- Generator: Adobe Illustrator 16.0.0, SVG Export Plug-In . SVG Version: 6.00 Build 0)  -->
<!DOCTYPE svg PUBLIC "-//W3C//DTD SVG 1.1//EN" "http://www.w3.org/Graphics/SVG/1.1/DTD/svg11.dtd">
<svg version="1.1" id="Layer_1" xmlns="http://www.w3.org/2000/svg" xmlns:xlink="http://www.w3.org/1999/xlink" x="0px" y="0px"
	 width="120.5px" height="120.5px" viewBox="0 0 120.5 120.5" enable-background="new 0 0 120.5 120.5" xml:space="preserve">
<g>
	<circle fill="#FFFFFF" cx="60.25" cy="60.25" r="60.25"/>
	<g>
		<defs>
			<circle id="SVGID_1_" cx="60.25" cy="60.25" r="60.25"/>
		</defs>
		<clipPath id="SVGID_2_">
			<use xlink:href="#SVGID_1_"  overflow="visible"/>
		</clipPath>
		<g clip-path="url(#SVGID_2_)">
			<path fill="#646464" d="M38.422,69.104c0.199,0.979,0.572,2.55,1.213,4.569C43.134,84.65,53.248,91.445,60.61,91.445
				c7.347,0,17.454-6.795,20.974-17.769c0.626-1.951,1.004-3.566,1.21-4.572c1.226-0.351,2.961-1.347,5.271-3.771
				c2.83-2.968,6.939-12.253,4.901-17.913c-0.559-1.553-1.534-2.709-2.852-3.466c-0.283-4.962-1.755-18.177-9.308-20.738
				c-0.328-0.371-0.656-0.743-1.016-1.1c-4.784-4.801-11.236-7.234-19.181-7.234c-7.945,0-14.397,2.435-19.183,7.234
				c-0.353,0.354-0.68,0.719-1.002,1.085c-7.6,2.53-9.072,15.82-9.353,20.774c-1.298,0.757-2.265,1.906-2.818,3.444
				c-2.039,5.66,2.069,14.945,4.898,17.915C35.463,67.756,37.197,68.752,38.422,69.104z M31.055,48.43
				c0.455-1.268,1.333-1.998,2.669-2.319c2.751,0.94,4.327,3.643,4.327,3.643s-1.072-11.135,1.46-19.983
				c1.038-1.957,2.348-3.874,4.04-5.565c4.204-4.209,9.943-6.346,17.06-6.346s12.854,2.135,17.06,6.344
				c1.656,1.659,2.944,3.531,3.977,5.446c2.575,8.871,1.493,20.104,1.493,20.104s1.581-2.711,4.337-3.648
				c1.348,0.319,2.23,1.052,2.69,2.325c1.54,4.279-1.931,12.412-4.255,14.853c-2.533,2.654-3.883,2.97-4.146,3.007l-1.46-0.383
				l-0.247,1.637c-0.004,0.021-0.338,2.203-1.307,5.225C75.467,83.014,66.105,88.471,60.61,88.471
				c-5.506,0-14.875-5.455-18.139-15.7c-1.019-3.197-1.308-5.191-1.31-5.212l-0.234-1.66l-1.475,0.391
				c-0.266-0.037-1.613-0.354-4.148-3.007C32.981,60.842,29.512,52.709,31.055,48.43z"/>
			<path fill="#00B4FF" d="M44.398,58.669h9.584c2.204,0,3.998-1.796,3.998-4.002v-3.399c0-0.103-0.021-0.2-0.029-0.302h5.398
				c-0.008,0.102-0.029,0.199-0.029,0.302v3.399c0,2.206,1.793,4.002,3.999,4.002h9.583c2.207,0,4.003-1.796,4.003-4.002v-3.399
				c0-2.206-1.796-4.002-4.003-4.002h-9.583c-1.572,0-2.923,0.922-3.577,2.246h-6.185c-0.653-1.323-2.007-2.246-3.575-2.246h-9.584
				c-2.206,0-4.004,1.796-4.004,4.002v3.399C40.395,56.874,42.192,58.669,44.398,58.669z M65.501,51.269
				c0-1.001,0.815-1.819,1.818-1.819h9.583c1.001,0,1.818,0.817,1.818,1.819v3.399c0,1.001-0.817,1.819-1.818,1.819h-9.583
				c-1.003,0-1.818-0.817-1.818-1.819V51.269z M42.58,51.269c0-1.001,0.818-1.819,1.818-1.819h9.584
				c1.002,0,1.818,0.817,1.818,1.819v3.399c0,1.001-0.816,1.819-1.818,1.819h-9.584c-1,0-1.818-0.817-1.818-1.819V51.269z"/>
			<path fill="#00B4FF" d="M57.868,94.807c-1.597,0-2.908,1.368-2.908,3.037v6.055c0,1.672,1.312,3.039,2.908,3.039h5.433
				c1.602,0,2.912-1.367,2.912-3.039v-6.055c0-1.669-1.311-3.037-2.912-3.037H57.868z"/>
			<polygon fill="#646464" points="53.578,115.289 39.854,93.072 33.35,95.668 49.771,119.316 52.178,119.316 56.065,119.316 
				53.578,115.289 			"/>
			<path fill="#646464" d="M19.683,100.056c-1.183,0.636-8.644,16.282-8.644,16.282v4.094h36.79L30.57,95.582
				C25.521,97.609,20.277,99.735,19.683,100.056z"/>
			<polygon fill="#646464" points="81.318,93.072 65.104,119.316 68.854,119.316 71.399,119.316 87.82,95.668 			"/>
			<path fill="#646464" d="M101.619,100.056c-0.601-0.323-5.911-2.476-10.991-4.517L73.34,120.432h36.918v-4.094
				C110.258,116.338,102.801,100.691,101.619,100.056z"/>
			<path fill="#00B4FF" d="M65.152,108.687c-0.479,0.288-1.039,0.464-1.649,0.464h-5.829c-0.66,0-1.264-0.209-1.769-0.542
				l-1.382,3.968l4.895,7.924h0.958h0.278h1.096l4.806-7.779L65.152,108.687z"/>
		</g>
	</g>
</g>
</svg>
