<?xml version="1.0" encoding="utf-8"?>
<!-- Generator: Adobe Illustrator 16.0.0, SVG Export Plug-In . SVG Version: 6.00 Build 0)  -->
<!DOCTYPE svg PUBLIC "-//W3C//DTD SVG 1.1//EN" "http://www.w3.org/Graphics/SVG/1.1/DTD/svg11.dtd">
<svg version="1.1" id="Layer_1" xmlns="http://www.w3.org/2000/svg" xmlns:xlink="http://www.w3.org/1999/xlink" x="0px" y="0px"
	 width="61.784px" height="50.071px" viewBox="0 0 61.784 50.071" enable-background="new 0 0 61.784 50.071" xml:space="preserve">
<g>
	<g>
		<path fill="#FFFFFF" d="M11.46,38.378c-7.773,0-10.771-5.848-11.268-9.143c-1.394-11.018,5.251-14.336,5.535-14.472l0.752,1.561
			C6.242,16.44,0.68,19.298,1.908,28.997c0.051,0.325,1.439,8.503,10.997,7.576l0.167,1.724
			C12.513,38.352,11.976,38.378,11.46,38.378z"/>
	</g>
	<g>
		<path fill="#FFFFFF" d="M6.105,20.074C6.075,19.982,2.909,10.69,11.51,5.023c0.652-0.429,5.984-3.937,13.071-0.773l-0.702,1.583
			c-6.267-2.85-11.199,0.47-11.24,0.505c-0.025,0.021-0.106,0.084-0.106,0.084c-7.387,5.024-4.812,13.021-4.785,13.103L6.105,20.074
			z"/>
	</g>
	<g>
		<path fill="#FFFFFF" d="M56.893,35.502L56.18,33.1c3.461-3.26,3.681-6.666,3.433-9.35c-0.538-5.795-3.69-10.567-7.897-12.444
			c-3.135-1.399-5.915-1.14-5.943-1.136L45.6,8.447c0.998-0.12,13.795-0.642,16.008,14.073
			C62.555,28.827,59.518,33.594,56.893,35.502z"/>
	</g>
	<g>
		<path fill="#FFFFFF" d="M8.229,26.781c-2.165,0-3.925-1.761-3.925-3.925c0-2.163,1.76-3.923,3.925-3.923
			c2.164,0,3.924,1.76,3.924,3.923C12.153,25.021,10.392,26.781,8.229,26.781z M8.229,20.665c-1.209,0-2.192,0.983-2.192,2.191
			c0,1.21,0.983,2.192,2.192,2.192c1.208,0,2.192-0.982,2.192-2.192C10.42,21.648,9.437,20.665,8.229,20.665z"/>
	</g>
	<g>
		<path fill="#FFFFFF" d="M35.578,50.071c-0.906-3.367-2.074-5.447-3.469-6.181c-1.289-0.679-2.732-0.17-4.128,0.322
			c-0.567,0.201-1.104,0.39-1.628,0.499c-4.238,0.884-8.209-0.129-11.175-2.851c-2.668-2.446-4.294-6.148-3.953-9.002
			c0.392-3.289,1.544-5.67,3.423-7.08c2.924-2.193,6.819-1.545,9.397-1.115c0.284,0.047,0.551,0.092,0.798,0.129
			c7.23,1.091,9.102-10.199,9.12-10.313l1.711,0.271c-0.719,4.537-3.966,12.827-11.089,11.756c-0.255-0.038-0.531-0.084-0.824-0.134
			c-2.286-0.381-5.742-0.955-8.073,0.792c-1.486,1.115-2.409,3.1-2.743,5.9c-0.235,1.971,0.858,5.187,3.403,7.521
			c1.8,1.651,4.937,3.414,9.652,2.431c0.411-0.086,0.894-0.256,1.405-0.436c1.583-0.559,3.553-1.254,5.511-0.223
			c1.865,0.981,3.283,3.808,4.334,7.714H35.578z"/>
	</g>
	<g>
		<path fill="#FFFFFF" d="M35.483,15.653c-2.165,0-3.925-1.76-3.925-3.923c0-2.164,1.76-3.925,3.925-3.925
			c2.164,0,3.924,1.761,3.924,3.925C39.407,13.894,37.647,15.653,35.483,15.653z M35.483,9.537c-1.209,0-2.192,0.983-2.192,2.193
			c0,1.208,0.983,2.191,2.192,2.191c1.208,0,2.191-0.983,2.191-2.191C37.675,10.521,36.691,9.537,35.483,9.537z"/>
	</g>
	<g>
		<path fill="#FFFFFF" d="M45.926,13.805C44.072,0.703,33.004,1.834,32.542,1.875c-9.501,0.834-10.969,9.855-11.765,10.026
			l-1.699-0.341c0.075-0.378,2.865-10.474,12.48-11.462C35.527-0.31,45.6-0.075,47.642,13.563L45.926,13.805z"/>
	</g>
	<g>
		<path fill="#FFFFFF" d="M46.784,20.665c-2.164,0-3.924-1.759-3.924-3.924c0-2.164,1.76-3.924,3.924-3.924
			c2.163,0,3.925,1.76,3.925,3.924C50.709,18.906,48.947,20.665,46.784,20.665z M46.784,14.549c-1.209,0-2.191,0.983-2.191,2.192
			s0.982,2.192,2.191,2.192s2.192-0.983,2.192-2.192S47.993,14.549,46.784,14.549z"/>
	</g>
	<g>
		<path fill="#FFFFFF" d="M19.928,18.539c-2.163,0-3.924-1.762-3.924-3.925c0-2.164,1.761-3.924,3.924-3.924
			c2.165,0,3.925,1.76,3.925,3.924C23.853,16.777,22.092,18.539,19.928,18.539z M19.928,12.422c-1.208,0-2.191,0.984-2.191,2.192
			c0,1.209,0.983,2.192,2.191,2.192c1.209,0,2.193-0.983,2.193-2.192C22.121,13.406,21.137,12.422,19.928,12.422z"/>
	</g>
	<g>
		<path fill="#FFFFFF" d="M48.801,50.071c-3.201-3.483-4.302-4.613-4.234-6.48c0.092-2.563,2.213-3.543,4.324-3.894
			c5.965-0.988,7.295-6.436,6.856-9.014c-1.088-6.402-6.919-6.899-8.68-6.899c-5.118,0-8.083,3.836-9.508,5.679l-0.151,0.195
			c-2.707,3.484-9.037,3.796-9.305,3.808l-0.081-1.853c0.057-0.002,5.743-0.287,7.921-3.092l0.147-0.191
			c1.606-2.078,4.947-6.4,10.976-6.4c4.386,0,9.449,2.219,10.508,8.443c0.505,2.971-0.257,9.284-7.005,10.946
			c-0.145,0.035-0.727,0.149-1.084,0.197c-1.22,0.163-2.566,0.515-2.912,2.167c-0.273,1.307,0.687,1.811,4.696,6.388H48.801z"/>
	</g>
	<g>
		<path fill="#FFFFFF" d="M25.214,38.378c-2.164,0-3.924-1.762-3.924-3.925c0-2.165,1.76-3.925,3.924-3.925
			c2.165,0,3.924,1.76,3.924,3.925C29.138,36.616,27.378,38.378,25.214,38.378z M25.214,32.261c-1.209,0-2.192,0.983-2.192,2.192
			s0.983,2.192,2.192,2.192c1.208,0,2.192-0.983,2.192-2.192S26.422,32.261,25.214,32.261z"/>
	</g>
	<g>
		<path fill="#FFFFFF" d="M46.042,36.2c-2.163,0-3.924-1.762-3.924-3.925c0-2.165,1.761-3.924,3.924-3.924
			c2.165,0,3.925,1.759,3.925,3.924C49.967,34.438,48.207,36.2,46.042,36.2z M46.042,30.083c-1.209,0-2.191,0.983-2.191,2.192
			s0.982,2.192,2.191,2.192s2.192-0.983,2.192-2.192S47.251,30.083,46.042,30.083z"/>
	</g>
	<g>
		<path fill="#FFFFFF" d="M40.889,50.071c0,0-1.857-5.432-2.607-7.191c-0.76-1.781-0.982-3.398-0.375-4.938
			c1.17-2.968,4.678-4.303,4.826-4.358l0.646,1.738l-0.322-0.869l0.736,0.702c-0.029,0.011-3.304,1.277-4.165,3.475
			c-0.413,1.054-0.27,2.171,0.333,3.466c0.011,0.021,0.7,1.674,0.7,1.674l2.628,6.302H40.889z"/>
	</g>
</g>
</svg>
