<?xml version="1.0" encoding="utf-8"?>
<!-- Generator: Adobe Illustrator 16.0.0, SVG Export Plug-In . SVG Version: 6.00 Build 0)  -->
<!DOCTYPE svg PUBLIC "-//W3C//DTD SVG 1.1//EN" "http://www.w3.org/Graphics/SVG/1.1/DTD/svg11.dtd">
<svg version="1.1" id="Layer_1" xmlns="http://www.w3.org/2000/svg" xmlns:xlink="http://www.w3.org/1999/xlink" x="0px" y="0px"
	 width="130.26px" height="100.097px" viewBox="0 0 130.26 100.097" enable-background="new 0 0 130.26 100.097"
	 xml:space="preserve">
<g>
	<linearGradient id="SVGID_1_" gradientUnits="userSpaceOnUse" x1="15.29" y1="75.9316" x2="5.6541" y2="31.8286">
		<stop  offset="0" style="stop-color:#E73E25"/>
		<stop  offset="1" style="stop-color:#FBAA1C"/>
	</linearGradient>
	<path fill="url(#SVGID_1_)" d="M22.909,76.72C7.371,76.72,1.377,65.03,0.384,58.443c-2.788-22.025,10.498-28.658,11.064-28.93
		l1.504,3.119c-0.475,0.232-11.593,5.945-9.138,25.334c0.102,0.651,2.877,16.999,21.983,15.146l0.334,3.445
		C25.014,76.667,23.94,76.72,22.909,76.72z"/>
</g>
<g>
	<linearGradient id="SVGID_2_" gradientUnits="userSpaceOnUse" x1="11.0176" y1="23.0049" x2="49.1392" y2="23.0049">
		<stop  offset="0" style="stop-color:#1365A6"/>
		<stop  offset="1" style="stop-color:#4CBBEC"/>
	</linearGradient>
	<path fill="url(#SVGID_2_)" d="M12.205,40.131c-0.062-0.186-6.39-18.761,10.803-30.088c1.305-0.858,11.963-7.87,26.131-1.548
		l-1.403,3.165c-12.529-5.695-22.387,0.938-22.47,1.009c-0.051,0.045-0.211,0.17-0.211,0.17
		c-14.767,10.043-9.62,26.029-9.566,26.191L12.205,40.131z"/>
</g>
<g>
	<linearGradient id="SVGID_3_" gradientUnits="userSpaceOnUse" x1="91.1558" y1="43.8955" x2="123.5112" y2="43.8955">
		<stop  offset="0" style="stop-color:#B5D443"/>
		<stop  offset="0.9993" style="stop-color:#0A6B37"/>
	</linearGradient>
	<path fill="url(#SVGID_3_)" d="M113.733,70.972l-1.426-4.804c6.919-6.516,7.357-13.326,6.861-18.69
		c-1.074-11.583-7.378-21.124-15.787-24.877c-6.268-2.797-11.824-2.277-11.88-2.27l-0.346-3.444
		c1.995-0.24,27.577-1.282,32.001,28.134C125.052,57.627,118.979,67.157,113.733,70.972z"/>
</g>
<g>
	<path fill="#05629B" d="M16.449,53.537c-4.326,0-7.846-3.519-7.846-7.845c0-4.325,3.52-7.844,7.846-7.844
		c4.326,0,7.845,3.519,7.845,7.844C24.294,50.019,20.774,53.537,16.449,53.537z M16.449,41.312c-2.417,0-4.382,1.965-4.382,4.381
		c0,2.418,1.966,4.383,4.382,4.383c2.416,0,4.382-1.965,4.382-4.383C20.831,43.276,18.865,41.312,16.449,41.312z"/>
</g>
<g>
	<linearGradient id="SVGID_4_" gradientUnits="userSpaceOnUse" x1="47.0811" y1="91.5752" x2="55.6055" y2="37.093">
		<stop  offset="0" style="stop-color:#E73E25"/>
		<stop  offset="0.9996" style="stop-color:#FBAA1C"/>
	</linearGradient>
	<path fill="url(#SVGID_4_)" d="M71.122,100.097c-1.812-6.732-4.145-10.891-6.932-12.356c-2.577-1.356-5.464-0.339-8.254,0.646
		c-1.134,0.4-2.207,0.777-3.255,0.996c-8.473,1.768-16.41-0.258-22.341-5.697c-5.334-4.891-8.583-12.291-7.902-17.997
		c0.784-6.574,3.086-11.334,6.843-14.153c5.846-4.385,13.633-3.088,18.786-2.229c0.567,0.095,1.103,0.184,1.596,0.258
		c14.454,2.181,18.195-20.389,18.232-20.617l3.419,0.541c-1.438,9.069-7.928,25.643-22.168,23.5
		c-0.509-0.076-1.061-0.168-1.647-0.267c-4.57-0.761-11.479-1.91-16.14,1.584c-2.971,2.229-4.816,6.196-5.484,11.794
		c-0.47,3.94,1.716,10.368,6.804,15.034c3.599,3.302,9.869,6.825,19.296,4.86c0.822-0.172,1.787-0.513,2.809-0.871
		c3.165-1.118,7.102-2.508,11.018-0.446c3.729,1.962,6.563,7.612,8.664,15.422H71.122z"/>
</g>
<g>
	<path fill="#FCB70B" d="M70.934,31.293c-4.327,0-7.846-3.52-7.846-7.844c0-4.325,3.519-7.845,7.846-7.845
		c4.325,0,7.844,3.52,7.844,7.845C78.778,27.773,75.259,31.293,70.934,31.293z M70.934,19.065c-2.418,0-4.384,1.966-4.384,4.384
		c0,2.415,1.966,4.381,4.384,4.381c2.414,0,4.381-1.966,4.381-4.381C75.315,21.031,73.348,19.065,70.934,19.065z"/>
</g>
<g>
	<linearGradient id="SVGID_5_" gradientUnits="userSpaceOnUse" x1="38.1396" y1="13.7979" x2="95.2388" y2="13.7979">
		<stop  offset="0" style="stop-color:#1365A6"/>
		<stop  offset="1" style="stop-color:#4CBBEC"/>
	</linearGradient>
	<path fill="url(#SVGID_5_)" d="M91.81,27.596C88.104,1.406,65.975,3.667,65.053,3.748C46.059,5.416,43.125,23.449,41.535,23.791
		L38.14,23.11c0.15-0.756,5.727-20.938,24.948-22.913C71.02-0.618,91.156-0.15,95.239,27.112L91.81,27.596z"/>
</g>
<g>
	<path fill="#0DB3FC" d="M93.524,41.312c-4.326,0-7.844-3.518-7.844-7.844s3.518-7.846,7.844-7.846s7.846,3.52,7.846,7.846
		S97.85,41.312,93.524,41.312z M93.524,29.084c-2.416,0-4.381,1.966-4.381,4.384c0,2.416,1.965,4.381,4.381,4.381
		c2.418,0,4.383-1.965,4.383-4.381C97.907,31.05,95.942,29.084,93.524,29.084z"/>
</g>
<line fill="none" x1="130.26" y1="100.097" x2="22.348" y2="100.097"/>
<g>
	<path fill="#05629B" d="M39.837,37.062c-4.325,0-7.844-3.521-7.844-7.846c0-4.326,3.52-7.846,7.844-7.846
		c4.327,0,7.846,3.52,7.846,7.846C47.683,33.54,44.164,37.062,39.837,37.062z M39.837,24.833c-2.416,0-4.381,1.967-4.381,4.383
		s1.966,4.383,4.381,4.383c2.417,0,4.383-1.967,4.383-4.383S42.254,24.833,39.837,24.833z"/>
</g>
<g>
	<linearGradient id="SVGID_6_" gradientUnits="userSpaceOnUse" x1="112.5806" y1="84.1426" x2="72.1647" y2="48.9209">
		<stop  offset="0" style="stop-color:#0A6B37"/>
		<stop  offset="1" style="stop-color:#B5D443"/>
	</linearGradient>
	<path fill="url(#SVGID_6_)" d="M97.557,100.097c-6.401-6.964-8.602-9.223-8.467-12.955c0.186-5.126,4.424-7.084,8.645-7.783
		c11.926-1.976,14.584-12.866,13.707-18.02c-2.175-12.799-13.83-13.793-17.352-13.793c-10.231,0-16.158,7.669-19.007,11.354
		l-0.302,0.389c-5.411,6.967-18.065,7.59-18.602,7.613l-0.161-3.704c0.114-0.004,11.481-0.574,15.835-6.182l0.296-0.382
		c3.21-4.154,9.889-12.794,21.939-12.794c8.769,0,18.891,4.435,21.006,16.878c1.01,5.938-0.512,18.56-14.002,21.883
		c-0.289,0.07-1.453,0.298-2.168,0.394c-2.438,0.326-5.13,1.028-5.821,4.333c-0.546,2.612,1.372,3.619,9.388,12.77H97.557z"/>
</g>
<g>
	<path fill="#A6D63E" d="M50.404,76.72c-4.325,0-7.844-3.521-7.844-7.846c0-4.327,3.52-7.846,7.844-7.846
		c4.327,0,7.845,3.519,7.845,7.846C58.249,73.198,54.731,76.72,50.404,76.72z M50.404,64.492c-2.417,0-4.381,1.966-4.381,4.382
		s1.965,4.383,4.381,4.383c2.416,0,4.382-1.967,4.382-4.383S52.82,64.492,50.404,64.492z"/>
</g>
<g>
	<path fill="#A6D63E" d="M92.042,72.366c-4.325,0-7.844-3.521-7.844-7.846c0-4.327,3.519-7.845,7.844-7.845
		c4.326,0,7.845,3.518,7.845,7.845C99.886,68.845,96.368,72.366,92.042,72.366z M92.042,60.139c-2.417,0-4.381,1.966-4.381,4.382
		c0,2.417,1.964,4.383,4.381,4.383c2.416,0,4.382-1.966,4.382-4.383C96.423,62.104,94.458,60.139,92.042,60.139z"/>
</g>
<g>
	<path fill="#A6D63E" d="M81.739,100.097c0,0-3.713-10.859-5.212-14.376c-1.519-3.562-1.964-6.795-0.75-9.871
		c2.341-5.933,9.351-8.602,9.648-8.713l1.293,3.475l-0.646-1.737l1.474,1.404c-0.059,0.021-6.605,2.554-8.326,6.945
		c-0.827,2.107-0.539,4.34,0.666,6.928c0.021,0.043,1.398,3.347,1.398,3.347l5.253,12.599H81.739z"/>
</g>
</svg>
