<?xml version="1.0" encoding="utf-8"?>
<!-- Generator: Adobe Illustrator 16.0.0, SVG Export Plug-In . SVG Version: 6.00 Build 0)  -->
<!DOCTYPE svg PUBLIC "-//W3C//DTD SVG 1.1//EN" "http://www.w3.org/Graphics/SVG/1.1/DTD/svg11.dtd">
<svg version="1.1" id="Layer_1" xmlns="http://www.w3.org/2000/svg" xmlns:xlink="http://www.w3.org/1999/xlink" x="0px" y="0px"
	 width="59.353px" height="56.37px" viewBox="0 0 59.353 56.37" enable-background="new 0 0 59.353 56.37" xml:space="preserve">
<path fill="#808F9B" d="M57,44.37h-3v-21h5.353L29.72,0L0.089,23.37H6v21H3v6H0v6h59v-6h-2V44.37z M36,44.37v-21h6v21H36z M27,44.37
	v-21h7v21H27z M45,44.37v-21h7v21H45z M5.614,21.37L29.72,2.357L53.828,21.37H5.614z M16,23.37v21H8v-21H16z M18,23.37h7v21h-7
	V23.37z M4,46.37h51v2H4V46.37z"/>
</svg>
