<?xml version="1.0" encoding="utf-8"?>
<!-- Generator: Adobe Illustrator 16.0.0, SVG Export Plug-In . SVG Version: 6.00 Build 0)  -->
<!DOCTYPE svg PUBLIC "-//W3C//DTD SVG 1.1//EN" "http://www.w3.org/Graphics/SVG/1.1/DTD/svg11.dtd">
<svg version="1.1" id="Layer_1" xmlns="http://www.w3.org/2000/svg" xmlns:xlink="http://www.w3.org/1999/xlink" x="0px" y="0px"
	 width="56.98px" height="56.814px" viewBox="0 0 56.98 56.814" enable-background="new 0 0 56.98 56.814" xml:space="preserve">
<g>
	<path fill-rule="evenodd" clip-rule="evenodd" fill="#808F9B" d="M40.188,9.404l-6.205-6.207v6.207H40.188z M53.1,23.892
		L53.1,23.892l1.354-1.21l-6.355-6.371l-1.205,1.32L53.1,23.892z M51.945,25.205L51.945,25.205l-6.375-6.369l-20.198,20.32
		l6.249,6.201L51.945,25.205z M45.642,16.392L45.642,16.392l2.456-2.44l8.883,8.73l-2.561,2.492l0.033,0.031l-0.65,0.667
		L43.214,36.376v20.438H0V0h0.835h32.114l0.117,0.082c0.217,0,0.416,0.09,0.551,0.256l1.818,1.824l7.778,7.242v0.979v0.05v8.261
		c0.788-0.764,1.555-1.597,2.356-2.384L45.642,16.392z M26.909,47.213L26.909,47.213l-3.346-3.342l-0.334,3.675L26.909,47.213z
		 M23.563,41.18L23.563,41.18l7.195,7.408l-9.57,0.983l1-9.598L23.563,41.18z M41.34,38.236L41.34,38.236l-9.719,9.646l-8.777-8.726
		c6.175-6.171,12.341-12.346,18.496-18.582v-9.318h-8.224c-0.5,0-0.989-0.332-0.989-0.822V1.861H1.704v53.264H41.34V38.236z"/>
</g>
</svg>
