<?xml version="1.0" encoding="UTF-8" standalone="no"?>
<!-- Generator: Adobe Illustrator 16.0.0, SVG Export Plug-In . SVG Version: 6.00 Build 0)  -->

<svg
   xmlns:dc="http://purl.org/dc/elements/1.1/"
   xmlns:cc="http://creativecommons.org/ns#"
   xmlns:rdf="http://www.w3.org/1999/02/22-rdf-syntax-ns#"
   xmlns:svg="http://www.w3.org/2000/svg"
   xmlns="http://www.w3.org/2000/svg"
   xmlns:sodipodi="http://sodipodi.sourceforge.net/DTD/sodipodi-0.dtd"
   xmlns:inkscape="http://www.inkscape.org/namespaces/inkscape"
   version="1.1"
   id="Layer_1"
   x="0px"
   y="0px"
   width="72.375999"
   height="56.941002"
   viewBox="0 0 72.375999 56.941002"
   enable-background="new 0 0 960 560"
   xml:space="preserve"
   inkscape:version="0.91 r13725"
   sodipodi:docname="eduenlace3.svg"><metadata
     id="metadata11"><rdf:RDF><cc:Work
         rdf:about=""><dc:format>image/svg+xml</dc:format><dc:type
           rdf:resource="http://purl.org/dc/dcmitype/StillImage" /><dc:title></dc:title></cc:Work></rdf:RDF></metadata><defs
     id="defs9" /><sodipodi:namedview
     pagecolor="#ffffff"
     bordercolor="#666666"
     borderopacity="1"
     objecttolerance="10"
     gridtolerance="10"
     guidetolerance="10"
     inkscape:pageopacity="0"
     inkscape:pageshadow="2"
     inkscape:window-width="1301"
     inkscape:window-height="744"
     id="namedview7"
     showgrid="false"
     fit-margin-top="0"
     fit-margin-left="0"
     fit-margin-right="0"
     fit-margin-bottom="0"
     inkscape:zoom="0.64813232"
     inkscape:cx="36.132"
     inkscape:cy="28.761"
     inkscape:window-x="65"
     inkscape:window-y="24"
     inkscape:window-maximized="1"
     inkscape:current-layer="Layer_1" /><path
     d="M 60.146,0 16.992,0 5.864,17.535 c -1.904,1.549 -3.146,3.88 -3.146,6.52 0,4.622 3.331,7.69 8.35,8.425 -5.686,-0.735 -10.559,6.689 -7.269,12.281 1.304,2.217 2.23,3.484 4.75,3.669 12.25,0.895 63.637,0.5 63.637,0.5 l 0,-3.948 0,-9.37 0,-3.748 -0.044,0 0,-3.204 -4.628,-8.669 4.862,0 0,-5.041 L 60.146,0 Z M 6.466,24.055 c -0.517,-1.67 0.972,-3.258 2.393,-4.063 l 55.863,0 0,7.188 -53.006,-0.11 c -2.584,0 -4.334,-0.057 -5.25,-3.015 z m 62.161,11.557 0,9.37 -54.43,0 C 8.716,44.264 7.299,42.847 6.882,40.013 6.506,37.455 9.715,34.846 14.197,35.612 l 54.43,0 z"
     id="path3"
     inkscape:connector-curvature="0"
     style="fill:#f05c61" /><path
     d="m 24.467,44.982 -7.533,-0.103 c -1.89,-0.088 -5.736,-1.656 -5.845,-3.564 -0.045,-0.791 -0.618,-1.141 0.185,-2.938 0.943,-2.113 3.45,-2.676 3.553,-2.689 3.223,-0.424 8.723,-0.076 8.723,-0.076 3.083,0 4.86,-1.561 4.805,-4.166 C 28.308,29.202 26.399,27.07 22.74,27.07 l -8.626,0 0,-0.017 c -1.89,-0.088 -3.397,-1.635 -3.397,-3.546 0,-1.967 1.333,-3.412 3.167,-3.412 0.409,0 1.676,-0.127 2.042,0 l 8.241,0.06 c 3.659,0 5.489,-1.889 5.489,-5.667 0,-3.778 -1.83,-5.667 -5.489,-5.667 l -17.109,0 C 2.353,8.821 0,10.888 0,15.023 l 0,35.716 c 0,4.135 2.353,6.202 7.058,6.202 l 17.109,0 c 3.659,0 5.489,-1.889 5.489,-5.668 0,-3.779 -2.355,-6.291 -5.189,-6.291 z"
     id="path5"
     inkscape:connector-curvature="0"
     style="fill:#40bdd5" /></svg>