<?xml version="1.0" encoding="utf-8"?>
<!-- Generator: Adobe Illustrator 16.0.0, SVG Export Plug-In . SVG Version: 6.00 Build 0)  -->
<!DOCTYPE svg PUBLIC "-//W3C//DTD SVG 1.1//EN" "http://www.w3.org/Graphics/SVG/1.1/DTD/svg11.dtd">
<svg version="1.1" id="Layer_1" xmlns="http://www.w3.org/2000/svg" xmlns:xlink="http://www.w3.org/1999/xlink" x="0px" y="0px"
	 width="61.806px" height="80.845px" viewBox="0 0 61.806 80.845" enable-background="new 0 0 61.806 80.845" xml:space="preserve">
<g>
	<path fill="#F05C61" d="M58.005,57.835l3.801,4.376c-3.928,3.456-10.475,8.715-19.643,15.778c-2.742,2.112-5.473,3.054-8.193,2.821
		c-2.721-0.229-5.056-1.565-7.005-4.003L3.488,46.337c-1.86-2.506-2.554-5.104-2.084-7.794c0.47-2.688,2.077-5.09,4.818-7.203
		c9.167-7.064,15.922-12.054,20.265-14.97l3.315,4.859L11.128,35.616c-2.697,2.078-2.902,4.6-0.617,7.566l7.791,10.111
		l20.089-15.479l3.688,4.786L21.99,58.08l9.816,12.741c2.32,3.012,4.828,3.479,7.525,1.4L58.005,57.835z"/>
</g>
<g>
	<path fill="#40BDD5" d="M3.801,23.011L0,18.635C3.927,15.179,10.475,9.92,19.643,2.856c2.742-2.112,5.473-3.054,8.193-2.821
		c2.721,0.23,5.057,1.565,7.006,4.002l23.477,30.471c1.859,2.505,2.555,5.104,2.085,7.795c-0.47,2.688-2.077,5.09-4.818,7.201
		C46.417,56.569,39.662,61.56,35.32,64.476l-3.315-4.859l18.673-14.387c2.696-2.078,2.902-4.6,0.616-7.566l-7.791-10.111
		L23.415,43.03l-3.688-4.787l20.089-15.479L30,10.024c-2.32-3.011-4.828-3.479-7.524-1.4L3.801,23.011z"/>
</g>
</svg>
