<?xml version="1.0" encoding="utf-8"?>
<!-- Generator: Adobe Illustrator 16.0.0, SVG Export Plug-In . SVG Version: 6.00 Build 0)  -->
<!DOCTYPE svg PUBLIC "-//W3C//DTD SVG 1.1//EN" "http://www.w3.org/Graphics/SVG/1.1/DTD/svg11.dtd">
<svg version="1.1" id="Layer_1" xmlns="http://www.w3.org/2000/svg" xmlns:xlink="http://www.w3.org/1999/xlink" x="0px" y="0px"
	 width="52.768px" height="52.769px" viewBox="0 0 52.768 52.769" enable-background="new 0 0 52.768 52.769" xml:space="preserve">
<g>
	<path fill="#FFFFFF" d="M26.74,38.154c-5.769,0-11.394-3.188-16.773-9.529c-0.431-0.496-0.444-1.188-0.097-1.711
		c0.299-0.435,7.279-10.466,17.08-10.466c5.792,0,11.246,3.505,16.164,10.429c0.351,0.497,0.351,1.135,0.029,1.627
		C42.867,28.896,36.54,38.154,26.74,38.154L26.74,38.154z M12.878,27.641L12.878,27.641c4.579,5.086,9.226,7.656,13.862,7.656
		c6.734,0,11.783-5.507,13.442-7.592C36,22.129,31.551,19.302,26.95,19.302C20.2,19.302,14.733,25.34,12.878,27.641L12.878,27.641z
		 M26.508,20.447L26.508,20.447c-3.792,0-6.869,3.074-6.869,6.871c0,3.783,3.077,6.839,6.869,6.839c3.801,0,6.848-3.056,6.848-6.839
		C33.356,23.521,30.309,20.447,26.508,20.447L26.508,20.447z M28.959,27.418L28.959,27.418c-1.527,0-2.752-1.252-2.752-2.768
		c0-1.535,1.225-2.767,2.752-2.767c1.528,0,2.765,1.231,2.765,2.767C31.724,26.166,30.488,27.418,28.959,27.418L28.959,27.418z"/>
</g>
<circle fill="#F90606" cx="26.384" cy="26.385" r="26.384"/>
<g>
	<path fill="#FFFFFF" d="M25.74,37.154c-5.769,0-11.394-3.188-16.773-9.529c-0.431-0.496-0.444-1.188-0.097-1.711
		c0.299-0.435,7.279-10.466,17.08-10.466c5.792,0,11.246,3.505,16.164,10.429c0.351,0.497,0.351,1.135,0.029,1.627
		C41.867,27.896,35.54,37.154,25.74,37.154L25.74,37.154z M11.878,26.641L11.878,26.641c4.579,5.086,9.226,7.656,13.862,7.656
		c6.734,0,11.783-5.507,13.442-7.592C35,21.129,30.551,18.302,25.95,18.302C19.2,18.302,13.733,24.34,11.878,26.641L11.878,26.641z
		 M25.508,19.447L25.508,19.447c-3.792,0-6.869,3.074-6.869,6.871c0,3.783,3.077,6.839,6.869,6.839c3.801,0,6.848-3.056,6.848-6.839
		C32.356,22.521,29.309,19.447,25.508,19.447L25.508,19.447z M27.959,26.418L27.959,26.418c-1.528,0-2.752-1.252-2.752-2.768
		c0-1.535,1.224-2.767,2.752-2.767c1.528,0,2.765,1.231,2.765,2.767C30.724,25.166,29.488,26.418,27.959,26.418L27.959,26.418z"/>
</g>
</svg>
