<?xml version="1.0" encoding="utf-8"?>
<!-- Generator: Adobe Illustrator 16.0.0, SVG Export Plug-In . SVG Version: 6.00 Build 0)  -->
<!DOCTYPE svg PUBLIC "-//W3C//DTD SVG 1.1//EN" "http://www.w3.org/Graphics/SVG/1.1/DTD/svg11.dtd">
<svg version="1.1" id="Layer_1" xmlns="http://www.w3.org/2000/svg" xmlns:xlink="http://www.w3.org/1999/xlink" x="0px" y="0px"
	 width="59.833px" height="46.927px" viewBox="0 0 59.833 46.927" enable-background="new 0 0 59.833 46.927" xml:space="preserve">
<g>
	<polygon fill="#808F9B" points="12.427,20.411 3.146,20.411 3.146,34.342 12.427,29.256 	"/>
	<polygon fill="#808F9B" points="3.146,46.927 12.427,46.927 12.427,38.813 3.146,43.9 	"/>
	<polygon fill="#808F9B" points="27.622,11.004 18.341,11.004 18.341,26.015 27.622,20.929 	"/>
	<polygon fill="#808F9B" points="18.341,46.927 27.622,46.927 27.622,30.486 18.341,35.573 	"/>
	<polygon fill="#808F9B" points="33.982,46.927 43.261,46.927 43.261,21.916 33.982,27.002 	"/>
	<polygon fill="#808F9B" points="43.261,0 33.982,0 33.982,17.443 43.261,12.357 	"/>
	<polygon fill="#808F9B" points="47.035,4.747 50.158,10.742 0,38.438 0,43.227 52.093,14.461 55.351,20.07 59.833,7.98 	"/>
</g>
</svg>
