<?xml version="1.0" encoding="utf-8"?>
<!-- Generator: Adobe Illustrator 16.0.0, SVG Export Plug-In . SVG Version: 6.00 Build 0)  -->
<!DOCTYPE svg PUBLIC "-//W3C//DTD SVG 1.1//EN" "http://www.w3.org/Graphics/SVG/1.1/DTD/svg11.dtd">
<svg version="1.1" id="Layer_1" xmlns="http://www.w3.org/2000/svg" xmlns:xlink="http://www.w3.org/1999/xlink" x="0px" y="0px"
	 width="122.5px" height="122.5px" viewBox="0 0 122.5 122.5" enable-background="new 0 0 122.5 122.5" xml:space="preserve">
<g>
	<circle fill="none" stroke="#FFFFFF" stroke-width="2" stroke-miterlimit="10" cx="61.25" cy="61.25" r="60.25"/>
	<g>
		<defs>
			<circle id="SVGID_1_" cx="61.25" cy="61.25" r="60.25"/>
		</defs>
		<clipPath id="SVGID_2_">
			<use xlink:href="#SVGID_1_"  overflow="visible"/>
		</clipPath>
		<g clip-path="url(#SVGID_2_)">
			<path fill="#FFFFFF" d="M93.258,102.319c-8.742-4.72-14.861-4.546-18.883-8.044c-0.395-0.45-0.936-2.898-1.27-4.584
				c3.719-2.949,6.977-7.207,8.661-12.465c0.603-1.875,0.966-3.428,1.165-4.395c1.177-0.336,2.844-1.292,5.066-3.623
				c2.719-2.852,6.666-11.774,4.709-17.214c-0.549-1.525-1.511-2.661-2.818-3.386c3.48-24.78-9.203-31.732-28.278-31.732
				c-14.659,0-30.216,4.3-27.545,31.421c-1.677,0.68-2.907,1.909-3.551,3.698c-1.957,5.441,1.991,14.362,4.71,17.213
				c2.219,2.327,3.887,3.285,5.061,3.622c0.193,0.94,0.551,2.454,1.17,4.395c1.674,5.254,4.924,9.507,8.641,12.458
				c-0.494,2.175-1.25,4.592-1.25,4.592c-4.02,3.498-10.139,3.324-18.883,8.044C21.221,107.04,17.898,124,17.898,124H61.61h43.714
				C105.324,124,102,107.04,93.258,102.319z M61.61,101.562c-7.833,0-9.507-5.325-9.845-7.067c0.205-0.682,0.536-1.84,0.845-3.064
				c3.046,1.858,6.224,2.877,9,2.877c2.755,0,5.909-1.006,8.938-2.844c0.367,1.699,0.682,2.776,0.948,3.444
				C71.03,96.332,68.803,101.562,61.61,101.562z M70.472,88.063c-1.893,1.353-3.843,2.317-5.64,2.856
				c-1.158,0.35-2.253,0.529-3.222,0.529c-0.97,0-2.066-0.18-3.228-0.529c-1.799-0.539-3.751-1.504-5.645-2.856
				c-3.553-2.535-6.891-6.46-8.561-11.706c-0.98-3.071-1.256-4.989-1.26-5.008l-0.223-1.594l-1.416,0.373
				c-0.256-0.035-1.554-0.339-3.987-2.891c-2.233-2.343-5.57-10.159-4.088-14.275c0.512-1.423,1.536-2.178,3.222-2.379l1.261-0.153
				v-0.249c0.794,0.95,1.509,3.394,2.477,10.828h1.748V41.239c0,0,25.516,3.507,34.093-7.496c0.924,0.508,1.766,1.058,2.519,1.641
				c3.718,8.432,3.254,25.627,3.254,25.627h2.099c0,0,0.745-8.058,1.897-10.548l1.024,0.122c1.686,0.201,2.709,0.956,3.222,2.379
				c1.481,4.114-1.853,11.931-4.089,14.275c-2.435,2.553-3.731,2.855-3.986,2.891l-1.396-0.365l-0.24,1.568
				c-0.003,0.021-0.33,2.119-1.26,5.023C77.365,81.602,74.023,85.527,70.472,88.063z"/>
			<path fill="#FFFFFF" d="M93.258,102.319c-8.543-4.614-14.578-4.562-18.602-7.821H71.35c0.049,0.144,0.101,0.291,0.147,0.409
				c-0.467,1.425-2.694,6.654-9.887,6.654c-7.828,0-9.503-5.319-9.843-7.063h-3.203c-4.021,3.26-10.057,3.207-18.602,7.821
				C21.221,107.04,17.898,124,17.898,124H61.61h43.714C105.324,124,102,107.04,93.258,102.319z"/>
		</g>
	</g>
</g>
</svg>
