<?xml version="1.0" encoding="utf-8"?>
<!-- Generator: Adobe Illustrator 16.0.0, SVG Export Plug-In . SVG Version: 6.00 Build 0)  -->
<!DOCTYPE svg PUBLIC "-//W3C//DTD SVG 1.1//EN" "http://www.w3.org/Graphics/SVG/1.1/DTD/svg11.dtd">
<svg version="1.1" id="Layer_1" xmlns="http://www.w3.org/2000/svg" xmlns:xlink="http://www.w3.org/1999/xlink" x="0px" y="0px"
	 width="88.479px" height="131.961px" viewBox="0 0 88.479 131.961" enable-background="new 0 0 88.479 131.961"
	 xml:space="preserve">
<g>
	<path fill="#2E3944" d="M84.039,42.09l3.57-6.207c1.793-3.209,0.734-7.32-2.443-9.164l-6.23-3.631l-0.07-6.158
		c0-3.662-2.955-5.705-6.627-5.705H65.05l-3.586-7.227c-1.879-3.191-5.949-4.738-9.162-2.945L46.076,4.39l-6.221-3.708
		c-3.173-1.803-7.263,0.19-9.145,3.381l-3.613,7.163h-7.16c-3.686,0-6.648,2.042-6.648,5.705l-0.067,6.659l-6.203,3.384
		c-3.213,1.838-4.268,5.833-2.479,9.037l3.573,6.148l-3.573,6.18c-1.789,3.203-0.734,7.258,2.479,9.113l6.203,3.605l0.067,7.347
		c0,3.666,2.963,6.822,6.648,6.822h1.53L0,121.951l19.197-11.254l2.91,21.265l22.229-48.456l13.714,48.271l6.115-20.611
		l17.266,13.991L67.125,74.923l5.113-0.035c3.672,0,6.627-2.987,6.627-6.657l0.07-7.184l6.23-3.613
		c3.178-1.855,4.236-5.928,2.443-9.137L84.039,42.09z M46.076,69.975c-15.402,0-27.911-12.457-27.911-27.885
		c0-15.424,12.509-27.982,27.911-27.982c15.424,0,27.965,12.559,27.965,27.982C74.041,57.518,61.5,69.975,46.076,69.975z"/>
	<path fill="#2E3944" d="M51.353,51.747c-1.566,0.838-3.301,1.287-5.26,1.287c-3.075,0-5.705-1.232-7.667-3.188
		c-2.011-2.016-3.244-4.641-3.244-7.721c0-2.963,1.233-5.65,3.244-7.662c2.017-2.012,4.699-3.244,7.667-3.244
		c1.736,0,3.414,0.391,4.975,1.232c1.572,0.842,2.857,1.9,3.867,3.301l4.639-3.363c-1.625-2.176-3.578-3.857-5.928-5.086
		c-2.238-1.117-4.811-1.789-7.553-1.789c-4.641,0-8.668,1.789-11.744,4.863c-3.079,3.08-4.868,7.104-4.868,11.748
		c0,4.643,1.789,8.67,4.868,11.748c3.075,3.076,7.103,4.869,11.744,4.869c2.848,0,5.482-0.619,7.887-1.904
		c2.518-1.287,4.529-3.133,6.096-5.43l-4.699-3.186C54.312,49.735,52.974,50.907,51.353,51.747z"/>
</g>
</svg>
