<?xml version="1.0" encoding="utf-8"?>
<!-- Generator: Adobe Illustrator 16.0.0, SVG Export Plug-In . SVG Version: 6.00 Build 0)  -->
<!DOCTYPE svg PUBLIC "-//W3C//DTD SVG 1.1//EN" "http://www.w3.org/Graphics/SVG/1.1/DTD/svg11.dtd">
<svg version="1.1" id="Layer_1" xmlns="http://www.w3.org/2000/svg" xmlns:xlink="http://www.w3.org/1999/xlink" x="0px" y="0px"
	 width="37.514px" height="30.466px" viewBox="0 0 37.514 30.466" enable-background="new 0 0 37.514 30.466" xml:space="preserve">
<g>
	<path fill-rule="evenodd" clip-rule="evenodd" fill="#606263" d="M15.62,25.013h15.642c3.133,0,6.252-3.134,6.252-6.244V6.262
		C37.514,3.129,34.395,0,31.262,0H6.235C3.132,0,0,3.129,0,6.262v12.507c0,3.11,3.132,6.244,6.235,6.244v5.453L15.62,25.013z"/>
	<g>
		<path fill-rule="evenodd" clip-rule="evenodd" fill="#FFFFFF" d="M6.007,3.326h25.738c0.338,0,0.604,0.137,0.797,0.327
			c0.189,0.193,0.32,0.454,0.32,0.795v15.79c0,0.314-0.131,0.58-0.32,0.777c-0.193,0.204-0.459,0.334-0.797,0.334H6.007
			c-0.265,0-0.526-0.13-0.737-0.334c-0.196-0.197-0.322-0.463-0.322-0.777V4.448c0-0.341,0.126-0.602,0.322-0.795
			C5.48,3.463,5.742,3.326,6.007,3.326L6.007,3.326z M31.68,5.571L31.68,5.571l-7.85,7.592l7.85,6.142V5.571z M13.933,13.163
			L13.933,13.163L6.136,5.571v13.733L13.933,13.163z M7.186,4.586L7.186,4.586L18.87,15.938L30.559,4.586H7.186z M18.42,17.512
			L18.42,17.512l-3.434-3.355l-7.522,5.93h22.9l-7.594-5.93l-3.355,3.355l-0.198,0.07h-0.673L18.42,17.512z"/>
	</g>
</g>
</svg>
