<?xml version="1.0" encoding="utf-8"?>
<!-- Generator: Adobe Illustrator 16.0.0, SVG Export Plug-In . SVG Version: 6.00 Build 0)  -->
<!DOCTYPE svg PUBLIC "-//W3C//DTD SVG 1.1//EN" "http://www.w3.org/Graphics/SVG/1.1/DTD/svg11.dtd">
<svg version="1.1" id="Layer_1" xmlns="http://www.w3.org/2000/svg" xmlns:xlink="http://www.w3.org/1999/xlink" x="0px" y="0px"
	 width="53.5px" height="49.379px" viewBox="0 0 53.5 49.379" enable-background="new 0 0 53.5 49.379" xml:space="preserve">
<path fill="#808F9B" d="M48,26.218V11.028V9.38V5H34.315l-6.263-4.66L27.631,0H6.84L6.088,0.598L0,5.951V9.38v1.648V41h28.444
	c2.106,5,6.704,8.379,12.05,8.379c7.336,0,13.006-5.612,13.006-12.95C53.5,32.126,52,28.646,48,26.218z M2,6.728L7.163,2h20.173
	l6.244,4.646L34.016,7H46v2H2V6.728z M27.139,36.391c0,1.115,0.187,1.609,0.463,2.609H2V11h44v14.133
	c-2-1.053-3.633-1.937-5.965-1.937C32.701,23.196,27.139,29.053,27.139,36.391z M46.219,41.703C45.543,43.625,43,45.242,41,45.709
	V48h-3v-2.059c-1-0.131-2.875-0.616-3.877-1.285l-0.145-0.362l0.676-2.792L35.076,40h0.82c1.222,1,2.672,1.879,3.989,1.879
	c1.415,0,2.335-0.103,2.386-1.063c0.002,0,0.01-0.111,0.01-0.139c0-0.684-0.324-1.56-2.666-2.413
	c-2.553-0.924-5.625-2.267-5.625-5.454c0-2.566,2.01-4.478,4.01-5.132V24h3v3.465c2,0.1,3.089,0.403,4.176,0.946l0.734,0.206
	l-0.896,3.602l-0.652-0.337c-0.657-0.307-1.721-0.821-3.35-0.821c-1.309,0-2.069,0.521-2.069,1.395c0,0.763,0.465,1.301,2.748,2.213
	c2.73,1.023,4.479,2.365,4.868,4.566C46.668,39.848,46.424,41.703,46.219,41.703z"/>
</svg>
