<?xml version="1.0" encoding="utf-8"?>
<!-- Generator: Adobe Illustrator 16.0.0, SVG Export Plug-In . SVG Version: 6.00 Build 0)  -->
<!DOCTYPE svg PUBLIC "-//W3C//DTD SVG 1.1//EN" "http://www.w3.org/Graphics/SVG/1.1/DTD/svg11.dtd">
<svg version="1.1" id="Layer_1" xmlns="http://www.w3.org/2000/svg" xmlns:xlink="http://www.w3.org/1999/xlink" x="0px" y="0px"
	 width="43.636px" height="59.059px" viewBox="0 0 43.636 59.059" enable-background="new 0 0 43.636 59.059" xml:space="preserve">
<g>
	<path fill-rule="evenodd" clip-rule="evenodd" fill="#8C8C8C" d="M6.298,4.652h5.73V3.055c0-0.743,0.347-1.633,0.887-2.165
		C13.45,0.374,14.194,0,15.077,0h13.488c0.881,0,1.595,0.374,2.115,0.89c0.586,0.532,0.932,1.422,0.932,2.165v1.598h5.738
		c1.768,0,3.414,0.71,4.471,1.825c1.111,1.221,1.814,2.681,1.814,4.443v47.072c0,0.545-0.357,1.065-1.107,1.065H1.078
		C0.548,59.059,0,58.538,0,57.993V10.921c0-1.763,0.72-3.223,1.782-4.443C2.882,5.362,4.477,4.652,6.298,4.652L6.298,4.652z
		 M6.475,40.408L6.475,40.408h7.72c0.537,0,0.883,0.353,0.883,1.047v7.522c0,0.57-0.346,1.086-0.883,1.086h-7.72
		c-0.546,0-0.892-0.516-0.892-1.086v-7.522C5.583,40.761,5.929,40.408,6.475,40.408L6.475,40.408z M13.106,42.343L13.106,42.343
		H7.524v5.588h5.582V42.343z M6.475,26.226L6.475,26.226h7.72c0.537,0,0.883,0.521,0.883,1.055v7.566
		c0,0.692-0.346,1.045-0.883,1.045h-7.72c-0.546,0-0.892-0.353-0.892-1.045V27.28C5.583,26.746,5.929,26.226,6.475,26.226
		L6.475,26.226z M13.106,28.346L13.106,28.346H7.524v5.558h5.582V28.346z M6.475,12.2L6.475,12.2h7.72
		c0.537,0,0.883,0.547,0.883,1.066v7.559c0,0.536-0.346,1.067-0.883,1.067h-7.72c-0.546,0-0.892-0.531-0.892-1.067v-7.559
		C5.583,12.747,5.929,12.2,6.475,12.2L6.475,12.2z M13.106,14.371L13.106,14.371H7.524v5.345h5.582V14.371z M19.591,18.134
		L19.591,18.134c-0.748,0-1.117-0.547-1.117-1.106c0-0.545,0.369-1.065,1.117-1.065h14.533c0.541,0,1.078,0.521,1.078,1.065
		c0,0.56-0.537,1.106-1.078,1.106H19.591z M19.591,32.133L19.591,32.133c-0.748,0-1.117-0.572-1.117-1.093
		c0-0.522,0.369-1.078,1.117-1.078h14.533c0.541,0,1.078,0.556,1.078,1.078c0,0.521-0.537,1.093-1.078,1.093H19.591z M19.591,46.104
		L19.591,46.104c-0.748,0-1.117-0.345-1.117-0.881c0-0.709,0.369-1.057,1.117-1.057h14.533c0.541,0,1.078,0.348,1.078,1.057
		c0,0.536-0.537,0.881-1.078,0.881H19.591z M14.022,4.652L14.022,4.652H29.62V3.055c0-0.218-0.174-0.571-0.347-0.743
		c-0.173-0.175-0.362-0.175-0.708-0.175H15.077c-0.173,0-0.537,0-0.709,0.175c-0.174,0.172-0.346,0.525-0.346,0.743V4.652z
		 M37.351,6.824L37.351,6.824h-5.738H12.028h-5.73c-1.291,0-2.168,0.342-3.055,1.219c-0.707,0.769-1.11,1.826-1.11,2.878v45.967
		h39.515V10.921c0-1.052-0.537-2.109-1.246-2.878C39.689,7.166,38.595,6.824,37.351,6.824L37.351,6.824z"/>
</g>
</svg>
